<mxfile host="app.diagrams.net" modified="2024-04-01T13:56:35.989Z" agent="Mozilla/5.0 (Windows NT 10.0; Win64; x64) AppleWebKit/537.36 (KHTML, like Gecko) Chrome/123.0.0.0 Safari/537.36" version="21.6.1" etag="siAg3vDuH9leRaq5Y0Z2" type="github">
  <diagram name="Page-1" id="W0-VCpuCzOTf_mFUE7iv">
    <mxGraphModel>
      <root>
        <mxCell id="0" />
        <mxCell id="1" parent="0" />
      </root>
    </mxGraphModel>
  </diagram>
</mxfile>
